<svg width="155" height="61" viewBox="0 0 155 61" fill="none" xmlns="http://www.w3.org/2000/svg">
<path d="M11.668 30.6171C11.2577 31.412 10.6167 31.9248 9.95002 32.1043L13.0782 38.6428H9.51412L6.95002 32.8222H3.84745V38.6428H0.667969V22.9504H8.0013C9.74489 22.9504 10.95 23.6171 11.5398 24.7197C11.95 25.4889 12.2064 26.4376 12.2064 27.7966C12.1808 29.0274 11.9757 30.0017 11.668 30.6171ZM8.82181 26.6684C8.64232 26.1043 8.07822 25.7966 7.28335 25.7966H3.84745V30.1556H7.4372C8.07822 30.1556 8.61668 29.8992 8.77053 29.4633C8.92438 29.1043 8.97566 28.6428 8.97566 28.0786C8.97566 27.5658 8.92438 26.9504 8.82181 26.6684ZM19.2064 38.9248C15.8218 38.9248 13.4628 37.4633 13.4628 34.1299V22.9504H16.6936V33.8735C16.6936 35.3094 17.5398 36.1812 19.2321 36.1812C20.7962 36.1812 21.7192 35.3351 21.7192 33.8992V22.9761H24.95V34.2581C24.9757 37.3607 22.7192 38.9248 19.2064 38.9248ZM34.8987 38.6428L29.7962 28.5658V38.6428H26.7192V22.9504H30.309L35.2064 32.7966V22.9504H38.2833V38.6428H34.8987ZM48.2064 38.6428L43.1295 28.5658V38.6428H40.0526V22.9504H43.6167L48.5398 32.7966V22.9504H51.591V38.6428H48.2064ZM53.3346 38.6428V22.9504H63.3859V25.8222H56.5398V29.3607H63.0782V32.2069H56.5398V35.7966H63.4628V38.6428H53.3346ZM76.1551 30.6171C75.7449 31.412 75.1039 31.9248 74.4372 32.1043L77.5654 38.6428H73.9756L71.4115 32.8222H68.309V38.6428H65.1295V22.9504H72.4372C74.1808 22.9504 75.3859 23.6171 75.9757 24.7197C76.3859 25.4889 76.6423 26.4376 76.6423 27.7966C76.668 29.0274 76.4628 30.0017 76.1551 30.6171ZM73.2833 26.6684C73.1039 26.1043 72.5398 25.7966 71.7449 25.7966H68.3346V30.1556H71.9244C72.5654 30.1556 73.1038 29.8992 73.2577 29.4633C73.4115 29.1043 73.4628 28.6428 73.4628 28.0786C73.4628 27.5658 73.3859 26.9504 73.2833 26.6684ZM80.6936 22.9248L79.95 27.8479H77.7449V22.9248H80.6936ZM87.4628 38.6428C83.4115 38.6428 81.8731 37.4889 81.3603 35.5145C81.2064 34.9504 81.2064 34.0786 81.2064 33.8479H84.4628C84.4628 34.053 84.5397 34.694 84.6423 34.9248C84.9756 35.694 85.7962 35.9504 87.4372 35.9504C89.3346 35.9504 89.9756 35.4633 89.9756 34.3863C89.9756 33.2069 89.3346 32.7966 87.5654 32.2581C87.0013 32.0787 85.9756 31.771 85.2833 31.4889C82.7192 30.694 81.2321 29.5915 81.2321 27.1299C81.2321 24.5402 83.1808 22.9248 87.1038 22.9248C90.591 22.9248 92.4372 24.1812 93.0013 26.1812C93.1551 26.6428 93.2577 27.2838 93.2577 27.694H89.7705C89.7705 27.5145 89.7192 27.1043 89.6167 26.771C89.3346 25.9761 88.6423 25.6428 87.0526 25.6428C85.1039 25.6428 84.5397 26.1043 84.5397 27.0017C84.5397 28.0787 85.2321 28.4633 87.3346 29.1043C88.0269 29.3351 89.0269 29.6684 89.5397 29.8992C91.8987 30.6171 93.4885 31.694 93.4885 34.2325C93.5141 37.0017 91.4372 38.6428 87.4628 38.6428ZM154.514 38.6428H96.3859V22.9504H154.514V38.6428ZM105.617 28.5145L107.309 35.771H109.719L112.514 25.7453H110.386L108.488 33.0786L106.873 25.7453H104.386L102.771 33.0786L100.873 25.7453H98.6167L101.412 35.771H103.822C103.771 35.771 105.617 28.5145 105.617 28.5145ZM121.796 27.053C121.027 26.0274 119.745 25.5915 117.95 25.5915C116.053 25.5915 114.847 26.1556 114.129 27.053C113.463 27.8479 113.155 29.1043 113.155 30.7197C113.155 32.4633 113.437 33.7197 114.181 34.5402C114.847 35.4889 116.078 35.9248 117.924 35.9248C119.719 35.9248 121.001 35.4889 121.719 34.5402C122.386 33.7197 122.668 32.4633 122.668 30.7197C122.668 29.0274 122.386 27.8479 121.796 27.053ZM116.027 28.1299C116.463 27.694 116.976 27.3863 117.924 27.3863C118.95 27.3863 119.437 27.694 119.899 28.2069C120.335 28.6684 120.565 29.5915 120.565 30.771C120.565 31.9504 120.335 32.9761 119.822 33.4889C119.386 33.8479 118.847 34.1299 117.924 34.1299C117.053 34.1299 116.437 33.8479 116.078 33.3863C115.565 32.8992 115.335 31.9248 115.335 30.771C115.36 29.6171 115.591 28.5915 116.027 28.1299ZM126.488 32.3094H128.617L130.386 35.7453H132.899L130.745 31.9248C131.129 31.771 131.565 31.5658 131.873 31.1299C132.155 30.6171 132.36 29.8735 132.36 29.0017C132.36 27.8222 132.206 27.1043 131.796 26.4889C131.335 26.0017 130.617 25.7197 129.514 25.7197H124.437V35.7453H126.488V32.3094ZM129.078 27.5658C129.514 27.5658 129.873 27.7197 130.027 28.0017C130.258 28.2325 130.258 28.5915 130.258 29.1043C130.258 29.771 130.258 30.1299 130.027 30.2838C129.873 30.4889 129.565 30.5915 129.232 30.5915H126.514V27.5658H129.078ZM141.463 33.9504H136.54V25.7453H134.335V35.771H141.437L141.463 33.9504ZM150.847 34.6684C151.514 33.8479 151.719 32.8222 151.719 30.6171C151.719 28.5658 151.488 27.5402 150.771 26.7966C150.181 26.0017 149.155 25.7197 147.694 25.7197H143.053V35.7453H147.822C149.309 35.771 150.258 35.3863 150.847 34.6684ZM147.412 27.5658C148.206 27.5658 148.668 27.7966 149.104 28.1299C149.463 28.5915 149.642 29.4376 149.642 30.6427C149.642 31.8992 149.488 32.9248 149.104 33.3607C148.745 33.7197 148.232 33.9504 147.412 33.9504H145.206V27.5658H147.412Z" fill="#272724"></path>
</svg>
